<?xml version="1.0" encoding="UTF-8" standalone="no"?>
<!DOCTYPE svg PUBLIC "-//W3C//DTD SVG 1.1//EN"
 "http://www.w3.org/Graphics/SVG/1.1/DTD/svg11.dtd">
<!-- Generated by graphviz version 12.2.1 (20241206.2353)
 -->
<!-- Title: CompilerPipeline Pages: 1 -->
<svg width="399pt" height="1052pt"
 viewBox="0.00 0.00 399.12 1052.00" xmlns="http://www.w3.org/2000/svg" xmlns:xlink="http://www.w3.org/1999/xlink">
<g id="graph0" class="graph" transform="scale(1 1) rotate(0) translate(4 1048)">
<title>CompilerPipeline</title>
<polygon fill="white" stroke="none" points="-4,4 -4,-1048 395.12,-1048 395.12,4 -4,4"/>
<!-- Input -->
<g id="node1" class="node">
<title>Input</title>
<polygon fill="none" stroke="black" points="204.75,-1044 150.75,-1044 150.75,-1008 204.75,-1008 204.75,-1044"/>
<text text-anchor="middle" x="177.75" y="-1020.95" font-family="Times,serif" font-size="14.00">Input</text>
</g>
<!-- Lexing -->
<g id="node2" class="node">
<title>Lexing</title>
<polygon fill="none" stroke="black" points="204.88,-972 150.62,-972 150.62,-936 204.88,-936 204.88,-972"/>
<text text-anchor="middle" x="177.75" y="-948.95" font-family="Times,serif" font-size="14.00">Lexing</text>
</g>
<!-- Input&#45;&gt;Lexing -->
<g id="edge1" class="edge">
<title>Input&#45;&gt;Lexing</title>
<path fill="none" stroke="black" d="M177.75,-1007.7C177.75,-1000.41 177.75,-991.73 177.75,-983.54"/>
<polygon fill="black" stroke="black" points="181.25,-983.62 177.75,-973.62 174.25,-983.62 181.25,-983.62"/>
</g>
<!-- Parsing (AST) -->
<g id="node3" class="node">
<title>Parsing (AST)</title>
<polygon fill="none" stroke="black" points="225.12,-900 130.38,-900 130.38,-864 225.12,-864 225.12,-900"/>
<text text-anchor="middle" x="177.75" y="-876.95" font-family="Times,serif" font-size="14.00">Parsing (AST)</text>
</g>
<!-- Lexing&#45;&gt;Parsing (AST) -->
<g id="edge2" class="edge">
<title>Lexing&#45;&gt;Parsing (AST)</title>
<path fill="none" stroke="black" d="M177.75,-935.7C177.75,-928.41 177.75,-919.73 177.75,-911.54"/>
<polygon fill="black" stroke="black" points="181.25,-911.62 177.75,-901.62 174.25,-911.62 181.25,-911.62"/>
</g>
<!-- Include resolution -->
<g id="node4" class="node">
<title>Include resolution</title>
<polygon fill="none" stroke="black" points="234.88,-828 120.62,-828 120.62,-792 234.88,-792 234.88,-828"/>
<text text-anchor="middle" x="177.75" y="-804.95" font-family="Times,serif" font-size="14.00">Include resolution</text>
</g>
<!-- Parsing (AST)&#45;&gt;Include resolution -->
<g id="edge3" class="edge">
<title>Parsing (AST)&#45;&gt;Include resolution</title>
<path fill="none" stroke="black" d="M177.75,-863.7C177.75,-856.41 177.75,-847.73 177.75,-839.54"/>
<polygon fill="black" stroke="black" points="181.25,-839.62 177.75,-829.62 174.25,-839.62 181.25,-839.62"/>
</g>
<!-- A -->
<g id="node5" class="node">
<title>A</title>
<polygon fill="none" stroke="black" points="169.88,-684 55.62,-684 55.62,-648 169.88,-648 169.88,-684"/>
<text text-anchor="middle" x="112.75" y="-660.95" font-family="Times,serif" font-size="14.00">Interned IR (NIR)</text>
</g>
<!-- Include resolution&#45;&gt;A -->
<g id="edge4" class="edge">
<title>Include resolution&#45;&gt;A</title>
<path fill="none" stroke="black" d="M169.78,-791.59C158.66,-767.29 138.37,-722.97 125.23,-694.27"/>
<polygon fill="black" stroke="black" points="128.56,-693.12 121.21,-685.49 122.19,-696.04 128.56,-693.12"/>
</g>
<!-- B -->
<g id="node6" class="node">
<title>B</title>
<polygon fill="none" stroke="black" points="296.12,-756 189.38,-756 189.38,-720 296.12,-720 296.12,-756"/>
<text text-anchor="middle" x="242.75" y="-732.95" font-family="Times,serif" font-size="14.00">Lexing (include)</text>
</g>
<!-- Include resolution&#45;&gt;B -->
<g id="edge5" class="edge">
<title>Include resolution&#45;&gt;B</title>
<path fill="none" stroke="black" d="M193.82,-791.7C201.45,-783.47 210.73,-773.48 219.15,-764.42"/>
<polygon fill="black" stroke="black" points="221.6,-766.92 225.84,-757.21 216.47,-762.16 221.6,-766.92"/>
</g>
<!-- C -->
<g id="node7" class="node">
<title>C</title>
<polygon fill="none" stroke="black" points="233.12,-468 144.38,-468 144.38,-432 233.12,-432 233.12,-468"/>
<text text-anchor="middle" x="188.75" y="-444.95" font-family="Times,serif" font-size="14.00">NIR merging</text>
</g>
<!-- A&#45;&gt;C -->
<g id="edge6" class="edge">
<title>A&#45;&gt;C</title>
<path fill="none" stroke="black" d="M111.06,-647.92C108.81,-617.27 107.55,-551.69 131.75,-504 137.12,-493.43 145.5,-483.87 154.2,-475.89"/>
<polygon fill="black" stroke="black" points="156.44,-478.58 161.76,-469.42 151.89,-473.26 156.44,-478.58"/>
</g>
<!-- Parsing (include) -->
<g id="node8" class="node">
<title>Parsing (include)</title>
<polygon fill="none" stroke="black" points="297.25,-684 188.25,-684 188.25,-648 297.25,-648 297.25,-684"/>
<text text-anchor="middle" x="242.75" y="-660.95" font-family="Times,serif" font-size="14.00">Parsing (include)</text>
</g>
<!-- B&#45;&gt;Parsing (include) -->
<g id="edge7" class="edge">
<title>B&#45;&gt;Parsing (include)</title>
<path fill="none" stroke="black" d="M242.75,-719.7C242.75,-712.41 242.75,-703.73 242.75,-695.54"/>
<polygon fill="black" stroke="black" points="246.25,-695.62 242.75,-685.62 239.25,-695.62 246.25,-695.62"/>
</g>
<!-- Type / name resolution pass (surface level ≈ forward declarations) -->
<g id="node11" class="node">
<title>Type / name resolution pass (surface level ≈ forward declarations)</title>
<polygon fill="none" stroke="black" points="377.5,-396 0,-396 0,-360 377.5,-360 377.5,-396"/>
<text text-anchor="middle" x="188.75" y="-372.95" font-family="Times,serif" font-size="14.00">Type / name resolution pass (surface level ≈ forward declarations)</text>
</g>
<!-- C&#45;&gt;Type / name resolution pass (surface level ≈ forward declarations) -->
<g id="edge12" class="edge">
<title>C&#45;&gt;Type / name resolution pass (surface level ≈ forward declarations)</title>
<path fill="none" stroke="black" d="M188.75,-431.7C188.75,-424.41 188.75,-415.73 188.75,-407.54"/>
<polygon fill="black" stroke="black" points="192.25,-407.62 188.75,-397.62 185.25,-407.62 192.25,-407.62"/>
</g>
<!-- Include Resolution (include) -->
<g id="node9" class="node">
<title>Include Resolution (include)</title>
<polygon fill="none" stroke="black" points="351.38,-612 180.12,-612 180.12,-576 351.38,-576 351.38,-612"/>
<text text-anchor="middle" x="265.75" y="-588.95" font-family="Times,serif" font-size="14.00">Include Resolution (include)</text>
</g>
<!-- Parsing (include)&#45;&gt;Include Resolution (include) -->
<g id="edge8" class="edge">
<title>Parsing (include)&#45;&gt;Include Resolution (include)</title>
<path fill="none" stroke="black" d="M248.44,-647.7C250.89,-640.24 253.82,-631.32 256.56,-622.97"/>
<polygon fill="black" stroke="black" points="259.86,-624.14 259.66,-613.54 253.21,-621.95 259.86,-624.14"/>
</g>
<!-- Include Resolution (include)&#45;&gt;B -->
<g id="edge9" class="edge">
<title>Include Resolution (include)&#45;&gt;B</title>
<path fill="none" stroke="black" d="M283.92,-612.32C292.63,-621.9 302.16,-634.57 306.75,-648 311.92,-663.14 313.56,-669.52 306.75,-684 301.44,-695.29 292.41,-705.01 282.78,-712.92"/>
<polygon fill="black" stroke="black" points="280.92,-709.93 275.06,-718.76 285.15,-715.52 280.92,-709.93"/>
</g>
<!-- D -->
<g id="node10" class="node">
<title>D</title>
<polygon fill="none" stroke="black" points="391.12,-540 140.38,-540 140.38,-504 391.12,-504 391.12,-540"/>
<text text-anchor="middle" x="265.75" y="-516.95" font-family="Times,serif" font-size="14.00">Interned IR for include (surface&#45;level NIR)</text>
</g>
<!-- Include Resolution (include)&#45;&gt;D -->
<g id="edge10" class="edge">
<title>Include Resolution (include)&#45;&gt;D</title>
<path fill="none" stroke="black" d="M265.75,-575.7C265.75,-568.41 265.75,-559.73 265.75,-551.54"/>
<polygon fill="black" stroke="black" points="269.25,-551.62 265.75,-541.62 262.25,-551.62 269.25,-551.62"/>
</g>
<!-- D&#45;&gt;C -->
<g id="edge11" class="edge">
<title>D&#45;&gt;C</title>
<path fill="none" stroke="black" d="M246.72,-503.7C237.55,-495.37 226.4,-485.22 216.32,-476.07"/>
<polygon fill="black" stroke="black" points="218.71,-473.5 208.95,-469.37 214,-478.68 218.71,-473.5"/>
</g>
<!-- Deep type / name resolution pass (TIR) -->
<g id="node12" class="node">
<title>Deep type / name resolution pass (TIR)</title>
<polygon fill="none" stroke="black" points="304.75,-324 72.75,-324 72.75,-288 304.75,-288 304.75,-324"/>
<text text-anchor="middle" x="188.75" y="-300.95" font-family="Times,serif" font-size="14.00">Deep type / name resolution pass (TIR)</text>
</g>
<!-- Type / name resolution pass (surface level ≈ forward declarations)&#45;&gt;Deep type / name resolution pass (TIR) -->
<g id="edge13" class="edge">
<title>Type / name resolution pass (surface level ≈ forward declarations)&#45;&gt;Deep type / name resolution pass (TIR)</title>
<path fill="none" stroke="black" d="M188.75,-359.7C188.75,-352.41 188.75,-343.73 188.75,-335.54"/>
<polygon fill="black" stroke="black" points="192.25,-335.62 188.75,-325.62 185.25,-335.62 192.25,-335.62"/>
</g>
<!-- Monomorphisation -->
<g id="node13" class="node">
<title>Monomorphisation</title>
<polygon fill="none" stroke="black" points="249.25,-252 128.25,-252 128.25,-216 249.25,-216 249.25,-252"/>
<text text-anchor="middle" x="188.75" y="-228.95" font-family="Times,serif" font-size="14.00">Monomorphisation</text>
</g>
<!-- Deep type / name resolution pass (TIR)&#45;&gt;Monomorphisation -->
<g id="edge14" class="edge">
<title>Deep type / name resolution pass (TIR)&#45;&gt;Monomorphisation</title>
<path fill="none" stroke="black" d="M188.75,-287.7C188.75,-280.41 188.75,-271.73 188.75,-263.54"/>
<polygon fill="black" stroke="black" points="192.25,-263.62 188.75,-253.62 185.25,-263.62 192.25,-263.62"/>
</g>
<!-- Low&#45;level IR -->
<g id="node14" class="node">
<title>Low&#45;level IR</title>
<polygon fill="none" stroke="black" points="233.12,-180 144.38,-180 144.38,-144 233.12,-144 233.12,-180"/>
<text text-anchor="middle" x="188.75" y="-156.95" font-family="Times,serif" font-size="14.00">Low&#45;level IR</text>
</g>
<!-- Monomorphisation&#45;&gt;Low&#45;level IR -->
<g id="edge15" class="edge">
<title>Monomorphisation&#45;&gt;Low&#45;level IR</title>
<path fill="none" stroke="black" d="M188.75,-215.7C188.75,-208.41 188.75,-199.73 188.75,-191.54"/>
<polygon fill="black" stroke="black" points="192.25,-191.62 188.75,-181.62 185.25,-191.62 192.25,-191.62"/>
</g>
<!-- LLVM IR -->
<g id="node15" class="node">
<title>LLVM IR</title>
<polygon fill="none" stroke="black" points="224.5,-108 153,-108 153,-72 224.5,-72 224.5,-108"/>
<text text-anchor="middle" x="188.75" y="-84.95" font-family="Times,serif" font-size="14.00">LLVM IR</text>
</g>
<!-- Low&#45;level IR&#45;&gt;LLVM IR -->
<g id="edge16" class="edge">
<title>Low&#45;level IR&#45;&gt;LLVM IR</title>
<path fill="none" stroke="black" d="M188.75,-143.7C188.75,-136.41 188.75,-127.73 188.75,-119.54"/>
<polygon fill="black" stroke="black" points="192.25,-119.62 188.75,-109.62 185.25,-119.62 192.25,-119.62"/>
</g>
<!-- binary file -->
<g id="node16" class="node">
<title>binary file</title>
<polygon fill="none" stroke="black" points="224.88,-36 152.62,-36 152.62,0 224.88,0 224.88,-36"/>
<text text-anchor="middle" x="188.75" y="-12.95" font-family="Times,serif" font-size="14.00">binary file</text>
</g>
<!-- LLVM IR&#45;&gt;binary file -->
<g id="edge17" class="edge">
<title>LLVM IR&#45;&gt;binary file</title>
<path fill="none" stroke="black" d="M188.75,-71.7C188.75,-64.41 188.75,-55.73 188.75,-47.54"/>
<polygon fill="black" stroke="black" points="192.25,-47.62 188.75,-37.62 185.25,-47.62 192.25,-47.62"/>
</g>
</g>
</svg>
